HIERARCHY
ROOT root
{
	OFFSET 0.000000 0.000000 0.000000
	CHANNELS 6 Xposition Yposition Zposition Zrotation Yrotation Xrotation
	JOINT lhip
	{
		OFFSET 0.058581 -0.082280 -0.017664
		CHANNELS 3 Zrotation Yrotation Xrotation
		JOINT lknee
		{
			OFFSET 0.043451 -0.386469 0.008037
			CHANNELS 3 Zrotation Yrotation Xrotation
			JOINT lankle
			{
				OFFSET -0.014790 -0.426874 -0.037428
				CHANNELS 3 Zrotation Yrotation Xrotation
				JOINT ltoe
				{
					OFFSET 0.041054 -0.060286 0.122042
					CHANNELS 3 Zrotation Yrotation Xrotation
					End Site
					{
						OFFSET 0.000000 0.000000 0.000000
					}
				}
			}
		}
	}
	JOINT rhip
	{
		OFFSET -0.060310 -0.090513 -0.013543
		CHANNELS 3 Zrotation Yrotation Xrotation
		JOINT rknee
		{
			OFFSET -0.043257 -0.383688 -0.004843
			CHANNELS 3 Zrotation Yrotation Xrotation
			JOINT rankle
			{
				OFFSET 0.019056 -0.420046 -0.034562
				CHANNELS 3 Zrotation Yrotation Xrotation
				JOINT rtoe
				{
					OFFSET -0.034840 -0.062106 0.130323
					CHANNELS 3 Zrotation Yrotation Xrotation
					End Site
					{
						OFFSET 0.000000 0.000000 0.000000
					}
				}
			}
		}
	}
	JOINT lowerback
	{
		OFFSET 0.004439 0.124404 -0.038385
		CHANNELS 3 Zrotation Yrotation Xrotation
		JOINT upperback
		{
			OFFSET 0.004488 0.137956 0.026820
			CHANNELS 3 Zrotation Yrotation Xrotation
			JOINT chest
			{
				OFFSET -0.002265 0.056032 0.002855
				CHANNELS 3 Zrotation Yrotation Xrotation
				JOINT lowerneck
				{
					OFFSET -0.013390 0.211636 -0.033468
					CHANNELS 3 Zrotation Yrotation Xrotation
					JOINT upperneck
					{
						OFFSET 0.010113 0.088937 0.050410
						CHANNELS 3 Zrotation Yrotation Xrotation
						End Site
						{
							OFFSET 0.000000 0.000000 0.000000
						}
					}
				}
				JOINT lclavicle
				{
					OFFSET 0.071702 0.114000 -0.018898
					CHANNELS 3 Zrotation Yrotation Xrotation
					JOINT lshoulder
					{
						OFFSET 0.122921 0.045205 -0.019046
						CHANNELS 3 Zrotation Yrotation Xrotation
						JOINT lelbow
						{
							OFFSET 0.255332 -0.015649 -0.022946
							CHANNELS 3 Zrotation Yrotation Xrotation
							JOINT lwrist
							{
								OFFSET 0.265709 0.012698 -0.007375
								CHANNELS 3 Zrotation Yrotation Xrotation
								End Site
								{
									OFFSET 0.000000 0.000000 0.000000
								}
							}
						}
					}
				}
				JOINT rclavicle
				{
					OFFSET -0.082954 0.112472 -0.023707
					CHANNELS 3 Zrotation Yrotation Xrotation
					JOINT rshoulder
					{
						OFFSET -0.113228 0.046853 -0.008472
						CHANNELS 3 Zrotation Yrotation Xrotation
						JOINT relbow
						{
							OFFSET -0.260127 -0.014369 -0.031269
							CHANNELS 3 Zrotation Yrotation Xrotation
							JOINT rwrist
							{
								OFFSET -0.269108 0.006794 -0.006027
								CHANNELS 3 Zrotation Yrotation Xrotation
								End Site
								{
									OFFSET 0.000000 0.000000 0.000000
								}
							}
						}
					}
				}
			}
		}
	}
}
MOTION
Frames: 7
Frame Time: 0.033333
-1.067329 0.264340 0.935770 1.086210 -4.872760 89.703032 16.948038 -1.277854 -12.102828 -3.693989 -9.829514 20.497166 -3.585235 12.159277 -17.881733 0.000000 -0.000000 0.000000 0.506771 1.149214 -26.056188 2.545109 -6.721506 48.586093 0.201988 -14.113266 -26.849450 0.000000 -0.000000 0.000000 -6.606988 0.031310 17.712631 1.074167 1.191819 -7.464915 1.689361 -1.230784 -2.824534 3.682311 6.785926 -11.998318 -2.690951 -5.969650 15.555748 -30.177612 2.408419 -0.321371 -46.661253 -9.848729 8.432845 6.173912 -23.007889 -0.309899 -4.189320 -6.587659 -3.202229 32.848163 5.176703 0.211586 45.100513 5.414055 16.568661 -1.019458 21.165168 -1.296578 10.441348 6.131881 -11.077923 
-1.062977 0.264191 0.934871 1.290999 -5.228510 89.281781 16.058359 -1.565432 -11.876795 -3.344484 -9.901538 20.793609 -3.250460 12.190041 -17.722425 0.000000 -0.000000 0.000000 -0.330369 1.012333 -25.573641 2.599460 -6.781633 48.565945 0.220454 -14.187781 -26.812479 0.000000 -0.000000 0.000000 -6.682118 -0.612208 18.278514 0.977428 1.329219 -7.839196 1.528931 -1.072482 -2.463094 3.666754 6.723891 -12.243963 -2.798121 -6.124308 15.772914 -29.811432 2.442699 -0.040206 -47.425781 -10.218929 8.301085 6.659059 -22.966848 -0.465948 -5.043624 -6.568076 -3.025294 32.832024 5.136040 0.059348 45.297046 5.495974 16.369158 -1.343718 20.969452 -2.091014 10.498874 6.249288 -10.264782 
-1.060436 0.264615 0.934249 1.142641 -4.958402 89.146823 15.217913 -1.349772 -11.842921 -1.891243 -10.393332 21.116358 -3.043832 12.978805 -17.783250 0.000000 -0.000000 0.000000 -0.249106 0.712190 -25.456427 2.782601 -6.595480 48.484768 0.337816 -13.980542 -26.570755 0.000000 -0.000000 0.000000 -6.370227 -0.636799 18.554719 1.046269 1.341945 -7.757419 1.605490 -1.227941 -2.712705 3.622653 6.419859 -11.981759 -2.684920 -5.603359 15.573342 -30.055301 2.353415 0.073907 -47.241825 -10.077038 8.398921 6.384597 -23.073260 -0.644470 -3.125733 -6.510603 -2.126532 32.810268 5.349441 0.289648 45.188828 5.589167 16.159623 -1.219189 20.953230 -2.815623 9.641950 6.188314 -9.864153 
-1.057235 0.264678 0.933985 0.914164 -4.973928 89.183019 15.540104 -0.960805 -12.190126 -2.751203 -9.574315 21.847375 -2.900295 12.652642 -18.084712 0.000000 -0.000000 0.000000 -0.449411 0.422560 -25.632674 2.920992 -6.288577 48.690458 0.357444 -13.911197 -26.588943 0.000000 -0.000000 0.000000 -6.333120 -0.640115 18.509785 1.135094 1.237787 -7.757796 1.543348 -1.203132 -2.648490 3.695258 6.415628 -11.921253 -2.683349 -5.463631 15.442412 -30.038355 2.301627 0.360143 -47.141014 -10.109878 8.406898 6.431631 -23.349581 -0.270367 -3.942826 -6.582056 -2.458254 32.872485 5.463814 0.478774 45.077281 5.756173 16.043843 -1.337363 20.925773 -2.888465 10.036261 6.294131 -9.886823 
-1.054962 0.264662 0.933784 0.934927 -5.049402 89.118596 14.971977 -0.824288 -12.395094 -2.338724 -9.626932 22.323054 -2.899663 12.765649 -18.190557 0.000000 -0.000000 0.000000 -0.662549 0.216200 -25.634444 2.751551 -6.315734 48.849766 0.425267 -13.657504 -26.680671 0.000000 -0.000000 0.000000 -6.406757 -0.731155 18.582978 1.150740 1.149287 -7.823632 1.540850 -1.085222 -2.506464 3.690189 6.333998 -11.895987 -2.713048 -5.755291 15.327904 -29.958470 2.173088 0.070479 -47.045255 -10.215073 8.371844 6.092494 -22.923581 -0.517296 -3.038243 -6.664835 -2.165907 32.999262 5.429575 0.418047 44.878157 5.898097 15.988574 -1.358975 20.844321 -2.706053 10.109929 6.265332 -9.939059 
-1.052379 0.264950 0.933326 0.556488 -4.878202 89.092482 16.096219 -0.920864 -12.390247 -3.957636 -9.053570 22.623363 -3.165472 12.276736 -18.338319 0.000000 -0.000000 0.000000 -0.659881 0.492425 -25.687977 2.932608 -6.150442 48.939863 0.461031 -13.751115 -26.657615 0.000000 -0.000000 0.000000 -6.346090 -0.692750 18.664209 1.275501 1.148203 -7.950948 1.544365 -1.053742 -2.411083 3.746481 6.311769 -11.863097 -2.749000 -5.757071 15.433865 -29.916310 2.033551 0.435832 -47.174837 -10.069326 8.076771 6.735425 -23.261424 -0.369762 -4.391766 -6.429518 -2.321979 32.914789 5.704783 0.540671 44.900964 5.833602 15.841261 -1.575474 20.842704 -2.525396 10.397422 6.243063 -9.794656 
-1.049705 0.265313 0.933197 0.258288 -4.828781 89.079306 16.075059 -0.454447 -12.673579 -4.148191 -8.761310 23.389585 -3.065577 11.951596 -18.524265 0.000000 -0.000000 0.000000 -0.796858 0.369924 -25.818255 2.877366 -6.070732 49.160586 0.383556 -13.508962 -26.655755 0.000000 -0.000000 0.000000 -6.412190 -0.643320 18.824756 1.328097 1.214965 -8.037673 1.590929 -1.117508 -2.433998 4.001350 6.391603 -12.091124 -2.907427 -5.861592 15.753343 -29.998690 2.200685 0.323300 -47.203578 -10.126262 7.980116 6.796020 -23.149794 0.136995 -4.474162 -6.710124 -1.866476 33.045697 5.532996 0.347031 44.752987 6.050795 15.815983 -1.384663 20.700016 -2.356696 10.034170 6.386242 -9.565375 
